<?xml version="1.0" encoding="UTF-8"?> <svg xmlns="http://www.w3.org/2000/svg" height="51" viewBox="0 0 359 51" width="359"><g fill="none" fill-rule="evenodd"><path d="m35.399175.000675c3.0495 0 5.34675.696 6.891 2.08725 1.54425 1.392 2.316 3.36525 2.316 5.91825v29.007c0 .56175-.456 1.017-1.01775 1.017h-.01275c-.414 0-.78675-.2505-.94275-.6345l-.5325-1.31175c-.28875-.711-1.2225-.84825-1.7205-.26325-.61275.7185-1.32 1.33125-2.121 1.8375-1.29675.81975-2.72625 1.23-4.28925 1.23-5.48925 0-8.235-2.6685-8.235-8.0055v-5.7195c0-5.337 2.74575-8.00625 8.235-8.00625h5.61675c.561 0 1.017-.45525 1.017-1.01775v-8.361c0-1.3725-.43875-2.4405-1.3155-3.2025-.8775-.762-2.17275-1.1445-3.88875-1.1445-3.39375 0-5.09025 1.44975-5.09025 4.347v2.35725c0 .561-.4545 1.01625-1.01625 1.01625h-1.96875c-.5625 0-1.017-.45525-1.017-1.01625v-2.12925c0-2.553.7515-4.52625 2.25825-5.91825 1.50525-1.39125 3.78375-2.08725 6.834-2.08725zm121.6938-.000675c6.138 0 9.20775 2.66925 9.20775 8.00625v3.843c0 .5625-.45525 1.01775-1.01625 1.01775h-1.97025c-.561 0-1.01775-.45525-1.01775-1.01775v-4.07175c0-1.3725-.447-2.439-1.34325-3.2025-.8955-.762-2.2395-1.14375-4.032-1.14375-1.79175 0-3.135.38175-4.032 1.14375-.89475.7635-1.3425 1.81125-1.3425 3.1455 0 1.335.13275 2.38275.399 3.14475.26775.76425.858 1.5645 1.7745 2.403l10.20225 9.804c.02325.021.04425.0435.06375.06675 1.089 1.2075 1.842 2.3685 2.25825 3.48225.41925 1.125.62775 2.54475.62775 4.26075 0 5.337-3.222 8.0055-9.66525 8.0055s-9.6645-2.6685-9.6645-8.0055v-3.8445c0-.56175.45675-1.01625 1.01775-1.01625h1.9695c.561 0 1.017.4545 1.017 1.01625v4.0725c0 1.3725.47625 2.4405 1.42875 3.20325.95325.762 2.364 1.14375 4.2315 1.14375 1.86825 0 3.27825-.38175 4.23375-1.14375.951-.76275 1.42875-1.8015 1.42875-3.117 0-1.31475-.1425-2.36325-.42975-3.1455-.285-.78075-.867-1.6095-1.74375-2.48775l-10.06575-9.83625c-1.18125-1.18125-1.992-2.3355-2.43-3.45975s-.65775-2.5455-.65775-4.26075c0-2.55375.792-4.527 2.3745-5.919 1.581-1.39125 3.97275-2.08725 7.176-2.08725zm28.90725 0c3.22275 0 5.65275.696 7.293 2.08725 1.63875 1.392 2.4585 3.36525 2.4585 5.919v22.87575c0 2.55375-.81075 4.527-2.43 5.91825-1.62075 1.39125-4.0425 2.08725-7.26375 2.08725-3.22275 0-5.65275-.696-7.2915-2.08725-1.6395-1.39125-2.45925-3.3645-2.45925-5.91825v-22.87575c0-2.55375.81-4.527 2.43075-5.919 1.62-1.39125 4.041-2.08725 7.26225-2.08725zm-177.363975.857625c2.97375 0 5.23125.7065 6.77625 2.11575 1.54425 1.4115 2.316 3.375 2.316 5.89125v9.7215c0 2.5545-.76275 4.52775-2.2875 5.919-1.52475 1.392-3.79425 2.08725-6.80475 2.08725h-3.61575c-.56175 0-1.01625.456-1.01625 1.01775v9.40275c0 .56175-.456 1.01775-1.01775 1.01775h-1.96875c-.5625 0-1.01775-.456-1.01775-1.01775v-35.1375c0-.56175.45525-1.01775 1.01775-1.01775zm56.043375-.85665c4.53675 0 6.8055 2.478 6.8055 7.434v2.7c0 .561-.456 1.01775-1.01775 1.01775h-1.797c-.56175 0-1.017-.45675-1.017-1.01775v-2.92875c0-2.51625-1.04925-3.77475-3.1455-3.77475-1.25775 0-2.41125.7245-3.45975 2.17275-1.04925 1.44975-1.57275 3.546-1.57275 6.291v25.1175c0 .56175-.45525 1.01775-1.017 1.01775h-1.96875c-.56175 0-1.017-.456-1.017-1.01775v-35.1375c0-.56175.45525-1.017 1.017-1.017h.0045c.4185 0 .79425.2565.94725.6465l.5385 1.37475c.3105.792 1.38975.86625 1.8255.13425 1.1955-2.0085 2.82-3.01275 4.87425-3.01275zm42.6738 8.87475c.561 0 1.01625.45525 1.01625 1.017v27.12c0 .56175-.45525 1.01775-1.01625 1.01775h-1.9695c-.561 0-1.01775-.456-1.01775-1.01775v-27.12c0-.56175.45675-1.017 1.01775-1.017zm22.061625-8.87475c5.604 0 8.406 2.6685 8.406 8.00625v29.0055c0 .56175-.456 1.01775-1.017 1.01775h-1.96875c-.561 0-1.017-.456-1.017-1.01775v-29.0055c0-1.44825-.31425-2.57325-.9435-3.375-.63-.80025-1.78275-1.20075-3.45975-1.20075-1.67925 0-3.22275.6495-4.63275 1.94475-1.41075 1.296-2.1165 2.55375-2.1165 3.774v27.8625c0 .56175-.4545 1.01775-1.01625 1.01775h-1.96875c-.56175 0-1.01775-.456-1.01775-1.01775v-35.1375c0-.56175.456-1.017 1.01775-1.017.42075 0 .79725.2595.9495.6525l.498 1.296c.27975.72525 1.23225.87675 1.72875.279 1.71075-2.05725 3.89625-3.08475 6.558-3.08475zm80.252025.85725c.405 0 .7725.24075.93225.612l10.194 23.48775c.4395 1.0125 1.95075.69825 1.95075-.405v-22.67775c0-.56175.45525-1.017 1.01625-1.017h1.9695c.5625 0 1.017.45525 1.017 1.017v35.1375c0 .56175-.4545 1.01775-1.017 1.01775h-2.31825c-.405 0-.77175-.24075-.933-.61275l-10.19325-23.487c-.4395-1.01325-1.9515-.699-1.9515.40425v22.67775c0 .56175-.45525 1.01775-1.017 1.01775h-1.968c-.5625 0-1.01775-.456-1.01775-1.01775v-35.1375c0-.56175.45525-1.017 1.01775-1.017zm-128.486775 0c.56175 0 1.01625.45525 1.01625 1.017v11.2455c0 1.02 1.335 1.40475 1.878.54225l7.7745-12.33c.18675-.2955.51075-.47475.861-.47475h2.052c.80175 0 1.2885.8835.861 1.56075l-8.8275 13.96125c-.192.3045-.20925.687-.045 1.00725l9.78825 19.16325c.345.6765-.1455 1.47975-.906 1.47975h-2.118c-.3825 0-.73275-.21525-.90675-.5565l-7.70625-15.1635c-.36-.70575-1.3515-.74925-1.77075-.07725l-.77925 1.25325c-.1005.1605-.15525.34725-.15525.53775v12.9885c0 .56175-.4545 1.01775-1.01625 1.01775h-1.968c-.5625 0-1.01775-.456-1.01775-1.01775v-35.1375c0-.56175.45525-1.017 1.01775-1.017zm-41.593875 19.72995h-5.61675c-1.60125 0-2.7075.4005-3.318 1.20075-.609.801-.9135 1.92525-.9135 3.37425v5.7195c0 1.449.3045 2.5725.9135 3.3735.6105.80025 1.71675 1.20075 3.318 1.20075 1.6005 0 3.087-.61875 4.461-1.8585 1.3725-1.23825 2.09475-2.46825 2.17275-3.6885v-8.30475c0-.56175-.456-1.017-1.017-1.017zm146.44305-17.156925c-3.813 0-5.71875 1.52475-5.71875 4.575v22.87575c0 3.05025 1.90575 4.575 5.71875 4.575 3.8115 0 5.718-1.52475 5.718-4.575v-22.87575c0-3.05025-1.9065-4.575-5.718-4.575zm-177.393225.858375h-3.61575c-.56175 0-1.01625.45525-1.01625 1.017v16.83825c0 .56175.4545 1.017 1.01625 1.017h3.61575c3.3915 0 5.0895-1.5255 5.0895-4.57575v-9.7215c0-1.449-.4395-2.57325-1.3155-3.375-.8775-.80025-2.136-1.2-3.774-1.2zm97.7907-4.289475c1.10775 0 2.004.897 2.004 2.004s-.89625 2.00475-2.004 2.00475c-1.107 0-2.004-.89775-2.004-2.00475 0-1.05668182.817308-1.92202066 1.854412-1.9985046z" fill="#1a5667"></path><path d="m249.3153 37.2645c1.0995 0 1.926.23775 2.4855.71175.55875.47475.8385 1.14675.8385 2.0175v7.79625c0 .87075-.27675 1.5435-.82875 2.0175s-1.37775.71175-2.475.71175c-1.09875 0-1.92675-.23775-2.48475-.71175-.56025-.474-.83925-1.14675-.83925-2.0175v-7.79625c0-.87075.27675-1.54275.82875-2.0175.552-.474 1.37775-.71175 2.475-.71175zm52.4502 0c1.0995 0 1.926.23775 2.4855.71175.55875.47475.8385 1.14675.8385 2.0175v7.79625c0 .87075-.27675 1.5435-.82875 2.0175s-1.37775.71175-2.475.71175c-1.09875 0-1.926-.23775-2.48475-.71175-.56025-.474-.83925-1.14675-.83925-2.0175v-7.79625c0-.87075.27675-1.54275.82875-2.0175.552-.474 1.37775-.71175 2.475-.71175zm-29.5959.2928v1.16925h-2.53425v11.49975h-1.36425v-11.49975h-2.53425v-1.16925zm-14.559825.000075 4.23 9.7455v-9.7455h1.3635v12.669h-1.3635l-4.23-9.7455v9.7455h-1.36425v-12.669zm20.055225-.00015 2.86575 12.669h-1.36425l-.663-2.9235h-3.72225l-.663 2.9235h-1.36425l2.865-12.669zm8.5374-.000375c1.014 0 1.7835.24075 2.31075.7215.5265.48075.78825 1.14975.78825 2.007v2.72925c0 1.32525-.57075 2.1705-1.71525 2.5335l2.39775 4.6785h-1.5l-2.2815-4.48275h-1.578v4.48275h-1.36425v-12.66975zm9.239175.00045v1.16925h-.975v10.3305h.975v1.16925h-3.3135v-1.16925h.97425v-10.3305h-.97425v-1.16925zm-46.116525.8772c-1.299 0-1.94925.51975-1.94925 1.55925v7.79625c0 1.04025.65025 1.55925 1.94925 1.55925s1.94925-.519 1.94925-1.55925v-7.79625c0-1.0395-.65025-1.55925-1.94925-1.55925zm52.4502 0c-1.299 0-1.94925.51975-1.94925 1.55925v7.79625c0 1.04025.65025 1.55925 1.94925 1.55925s1.94925-.519 1.94925-1.55925v-7.79625c0-1.0395-.65025-1.55925-1.94925-1.55925zm-25.143.642975-1.59825 7.056h3.19725zm9.57015-.351375h-1.578v5.84775h1.578c1.1565 0 1.73475-.51975 1.73475-1.55925v-2.72925c0-.4935-.14925-.87675-.4485-1.14975-.2985-.27225-.7275-.4095-1.28625-.4095zm-19.0812-19.471275v10.233c0 1.04025.65025 1.55925 1.9485 1.55925 1.29975 0 1.95-.519 1.95-1.55925v-10.233h1.36425v10.233c0 .87075-.276 1.5435-.82875 2.0175s-1.377.711-2.475.711-1.92675-.237-2.4855-.711c-.5595-.474-.8385-1.14675-.8385-2.0175v-10.233zm-8.09835-.2925c1.098 0 1.92525.23775 2.48475.71175.558.47475.83775 1.14675.83775 2.0175v7.79625c0 .87075-.27675 1.5435-.828 2.0175-.552.474-1.377.711-2.47575.711-1.098 0-1.926-.237-2.48475-.711-.56025-.474-.83925-1.14675-.83925-2.0175v-7.79625c0-.87075.2775-1.54275.83025-2.0175.5505-.474 1.377-.71175 2.475-.71175zm-9.852525 0c2.09175 0 3.13725.90975 3.13725 2.72925v1.65675h-1.36425v-1.73475c0-.468-.15225-.83175-.45825-1.092-.306-.2595-.7635-.38925-1.374-.38925s-1.06875.12975-1.374.38925c-.306.26025-.4575.618-.4575 1.0725s.045.81225.13575 1.07175c.09075.26025.29175.53325.60375.819l3.48975 3.3525c.3765.41625.63525.81525.78 1.1985.1425.384.21375.86775.21375 1.452 0 1.8195-1.098 2.7285-3.29475 2.7285-2.19525 0-3.2925-.909-3.2925-2.7285v-1.65675h1.36425v1.73475c0 .468.162.83175.48675 1.09125.32475.26025.8055.39 1.4415.39.63675 0 1.11825-.12975 1.44225-.39.3255-.2595.48825-.6135.48825-1.062s-.048-.8055-.147-1.07175c-.09675-.26625-.29475-.549-.594-.84825l-3.42975-3.3525c-.4035-.40275-.6795-.79575-.82875-1.179-.15075-.38325-.2235-.867-.2235-1.452 0-.87075.26925-1.54275.8085-2.0175.5385-.474 1.3545-.71175 2.4465-.71175zm69.836475 0c2.09175 0 3.13725.90975 3.13725 2.72925v1.65675h-1.36425v-1.73475c0-.468-.15225-.83175-.4575-1.092-.306-.2595-.76425-.38925-1.37475-.38925s-1.068.12975-1.374.38925c-.306.26025-.4575.618-.4575 1.0725s.045.81225.13575 1.07175c.0915.26025.2925.53325.60375.819l3.48975 3.3525c.3765.41625.63525.81525.78 1.1985.1425.384.21375.86775.21375 1.452 0 1.8195-1.098 2.7285-3.294 2.7285-2.19525 0-3.29325-.909-3.29325-2.7285v-1.65675h1.36425v1.73475c0 .468.162.83175.48675 1.09125.3255.26025.8055.39 1.44225.39s1.1175-.12975 1.44225-.39c.32475-.2595.4875-.6135.4875-1.062s-.048-.8055-.14625-1.07175c-.0975-.26625-.2955-.549-.59475-.84825l-3.42975-3.3525c-.40275-.40275-.67875-.79575-.82875-1.179s-.2235-.867-.2235-1.452c0-.87075.26925-1.54275.8085-2.0175.53925-.474 1.3545-.71175 2.4465-.71175zm-5.984325.29325v1.16925h-4.19025v4.48275h3.411v1.16925h-3.411v4.6785h4.38525v1.16925h-5.7495v-12.669zm-31.8675-.000375v1.16925h-2.53425v11.49975h-1.36425v-11.49975h-2.53425v-1.16925zm71.78535.000375 4.22925 9.7455v-9.7455h1.36425v12.669h-1.36425l-4.22925-9.7455v9.7455h-1.365v-12.669zm-22.0254-.000375v1.16925h-2.535v11.49975h-1.3635v-11.49975h-2.53425v-1.16925zm8.0895.000375v1.16925h-4.19175v4.48275h3.41175v1.16925h-3.41175v4.6785h4.386v1.16925h-5.75025v-12.669zm-44.5575 0 1.599 10.70025 2.085-10.70025h1.461l2.0865 10.70025 1.59825-10.70025h1.365l-1.8915 12.669h-1.91025l-1.98825-10.116-1.96725 10.116h-1.91175l-1.89-12.669zm50.618775-.00015c1.01325 0 1.78275.24 2.31.72075.52575.48075.78825 1.14975.78825 2.00775v2.7285c0 1.32525-.57075 2.1705-1.716 2.5335l2.39925 4.6785h-1.50075l-2.28075-4.4835h-1.57875v4.4835h-1.36425v-12.669zm-60.012825.00015v5.652h3.83925v-5.652h1.36425v12.669h-1.36425v-5.84775h-3.83925v5.84775h-1.36425v-12.669zm-26.021775.87675c-1.299 0-1.9485.51975-1.9485 1.55925v7.79625c0 1.04025.6495 1.55925 1.9485 1.55925 1.3005 0 1.95-.519 1.95-1.55925v-7.79625c0-1.0395-.6495-1.55925-1.95-1.55925zm86.0346.2916h-1.57875v5.84775h1.57875c1.1565 0 1.73475-.51975 1.73475-1.55925v-2.7285c0-.49425-.15-.8775-.44925-1.1505-.2985-.27225-.7275-.4095-1.2855-.4095zm-76.2087-19.764075c1.06425 0 1.86975.23775 2.4165.71175.54525.47475.8175 1.14675.8175 2.0175v1.85175h-1.36425v-1.85175c0-1.0395-.6165-1.55925-1.851-1.55925-1.23525 0-1.8525.51975-1.8525 1.55925v7.79625c0 1.04025.61725 1.55925 1.8525 1.55925 1.2345 0 1.851-.519 1.851-1.55925v-1.07175h1.36425v1.07175c0 .87075-.2655 1.5435-.79875 2.0175s-1.332.711-2.397.711c-1.06575 0-1.872-.237-2.418-.711-.5445-.474-.819-1.14675-.819-2.0175v-7.79625c0-.87075.26775-1.54275.801-2.0175.5325-.474 1.3305-.71175 2.39775-.71175zm-19.686675 0c2.09175 0 3.13725.90975 3.13725 2.72925v1.65675h-1.36425v-1.73475c0-.468-.15225-.83175-.45825-1.092-.306-.2595-.7635-.38925-1.374-.38925s-1.06875.12975-1.374.38925c-.306.26025-.4575.618-.4575 1.0725s.045.81225.13575 1.07175c.09075.26025.29175.53325.60375.819l3.48975 3.3525c.3765.4155.63525.81525.78 1.1985.1425.38325.21375.86775.21375 1.452 0 1.8195-1.098 2.7285-3.29475 2.7285-2.19525 0-3.2925-.909-3.2925-2.7285v-1.65675h1.36425v1.73475c0 .468.162.83175.48675 1.09125.32475.26025.8055.39 1.4415.39.63675 0 1.11825-.12975 1.44225-.39.3255-.2595.48825-.6135.48825-1.062s-.048-.8055-.147-1.07175c-.09675-.26625-.29475-.549-.594-.84825l-3.42975-3.3525c-.4035-.40275-.6795-.79575-.82875-1.179-.15075-.38325-.2235-.867-.2235-1.452 0-.87075.26925-1.54275.8085-2.0175.5385-.474 1.3545-.71175 2.4465-.71175zm9.852525 0c1.098 0 1.92525.23775 2.48475.71175.558.47475.83775 1.14675.83775 2.0175v7.79625c0 .87075-.27675 1.5435-.828 2.0175-.552.474-1.377.711-2.47575.711-1.098 0-1.926-.237-2.48475-.711-.56025-.474-.83925-1.14675-.83925-2.0175v-7.79625c0-.87075.2775-1.54275.83025-2.0175.5505-.474 1.377-.71175 2.475-.71175zm28.077.29325v1.16925h-4.19025v4.48275h3.41025v1.16925h-3.41025v4.6785h4.3845v1.16925h-5.7495v-12.669zm10.6998 0 2.45625 6.5295 2.45475-6.5295h1.44375l-3.21675 8.14725v4.52175h-1.36425v-4.54125l-3.21525-8.12775zm-19.56855-.000375v1.16925h-.975v10.3305h.975v1.16925h-3.3135v-1.16925h.97425v-10.3305h-.97425v-1.16925zm17.053725-.000075v1.16925h-2.53425v11.49975h-1.3635v-11.49975h-2.53425v-1.16925zm-36.253725.8772c-1.299 0-1.9485.51975-1.9485 1.55925v7.79625c0 1.04025.6495 1.55925 1.9485 1.55925 1.3005 0 1.95-.519 1.95-1.55925v-7.79625c0-1.0395-.6495-1.55925-1.95-1.55925z" fill="#000"></path><path d="m61.8643909 1.97564853-1.6815-1.68075c-.62925-.63-1.70775-.18375-1.70775.70725v42.49649997c0 .054-.0435.09825-.096.09825h-57.37650001c-.89175 0-1.338 1.07775-.70725 1.70775l1.68 1.68075c.3945.393.9285.61425 1.485.61425h56.16825001c.14625 0 .28725-.01725.4245-.0465.405.08775.84825.069 1.332-.19425.69975-.38325 1.09425-1.158 1.09425-1.956v-41.94224997c0-.55725-.22125-1.09125-.615-1.485" fill="#a3cd3a" transform="translate(176.506834 2.574301)"></path></g></svg> 